<mxfile host="app.diagrams.net" modified="2021-04-01T04:53:15.533Z" agent="5.0 (Windows NT 10.0; Win64; x64) AppleWebKit/537.36 (KHTML, like Gecko) Chrome/89.0.4389.90 Safari/537.36" etag="WQPxYehMA0zS8mt8NKQT" version="14.5.3" type="github">
  <diagram id="kgpKYQtTHZ0yAKxKKP6v" name="Page-1">
    <mxGraphModel dx="1422" dy="1928" grid="1" gridSize="10" guides="1" tooltips="1" connect="1" arrows="1" fold="1" page="1" pageScale="1" pageWidth="850" pageHeight="1100" math="0" shadow="0">
      <root>
        <mxCell id="0" />
        <mxCell id="1" parent="0" />
        <mxCell id="Wnc38f61G4QZHyKJO4xu-48" value="" style="rounded=0;whiteSpace=wrap;html=1;" vertex="1" parent="1">
          <mxGeometry x="30" y="-730" width="1040" height="430" as="geometry" />
        </mxCell>
        <mxCell id="Wnc38f61G4QZHyKJO4xu-34" value="" style="rounded=0;whiteSpace=wrap;html=1;" vertex="1" parent="1">
          <mxGeometry x="10" y="470" width="790" height="520" as="geometry" />
        </mxCell>
        <mxCell id="Wnc38f61G4QZHyKJO4xu-17" value="" style="rounded=1;whiteSpace=wrap;html=1;" vertex="1" parent="1">
          <mxGeometry x="30" y="60" width="750" height="370" as="geometry" />
        </mxCell>
        <mxCell id="Wnc38f61G4QZHyKJO4xu-11" style="edgeStyle=orthogonalEdgeStyle;rounded=0;orthogonalLoop=1;jettySize=auto;html=1;" edge="1" parent="1" source="Wnc38f61G4QZHyKJO4xu-1" target="Wnc38f61G4QZHyKJO4xu-4">
          <mxGeometry relative="1" as="geometry" />
        </mxCell>
        <mxCell id="Wnc38f61G4QZHyKJO4xu-1" value="User" style="rounded=0;whiteSpace=wrap;html=1;fillColor=#d5e8d4;strokeColor=#82b366;" vertex="1" parent="1">
          <mxGeometry x="60" y="200" width="120" height="50" as="geometry" />
        </mxCell>
        <mxCell id="Wnc38f61G4QZHyKJO4xu-8" style="edgeStyle=orthogonalEdgeStyle;rounded=0;orthogonalLoop=1;jettySize=auto;html=1;exitX=1;exitY=0.5;exitDx=0;exitDy=0;entryX=1.025;entryY=0.363;entryDx=0;entryDy=0;entryPerimeter=0;" edge="1" parent="1" source="Wnc38f61G4QZHyKJO4xu-3" target="Wnc38f61G4QZHyKJO4xu-6">
          <mxGeometry relative="1" as="geometry" />
        </mxCell>
        <mxCell id="Wnc38f61G4QZHyKJO4xu-3" value="IT Services" style="rounded=0;whiteSpace=wrap;html=1;fillColor=#d5e8d4;strokeColor=#82b366;" vertex="1" parent="1">
          <mxGeometry x="470" y="100" width="120" height="50" as="geometry" />
        </mxCell>
        <mxCell id="Wnc38f61G4QZHyKJO4xu-10" style="edgeStyle=orthogonalEdgeStyle;rounded=0;orthogonalLoop=1;jettySize=auto;html=1;entryX=0;entryY=0.25;entryDx=0;entryDy=0;" edge="1" parent="1" source="Wnc38f61G4QZHyKJO4xu-4" target="Wnc38f61G4QZHyKJO4xu-3">
          <mxGeometry relative="1" as="geometry" />
        </mxCell>
        <mxCell id="Wnc38f61G4QZHyKJO4xu-4" value="Edge Server" style="ellipse;whiteSpace=wrap;html=1;aspect=fixed;fillColor=#dae8fc;strokeColor=#6c8ebf;" vertex="1" parent="1">
          <mxGeometry x="310" y="190" width="80" height="80" as="geometry" />
        </mxCell>
        <mxCell id="Wnc38f61G4QZHyKJO4xu-9" style="edgeStyle=orthogonalEdgeStyle;rounded=0;orthogonalLoop=1;jettySize=auto;html=1;entryX=1;entryY=0.5;entryDx=0;entryDy=0;" edge="1" parent="1" source="Wnc38f61G4QZHyKJO4xu-6" target="Wnc38f61G4QZHyKJO4xu-4">
          <mxGeometry relative="1" as="geometry" />
        </mxCell>
        <mxCell id="Wnc38f61G4QZHyKJO4xu-6" value="Config Management" style="ellipse;whiteSpace=wrap;html=1;aspect=fixed;fillColor=#dae8fc;strokeColor=#6c8ebf;" vertex="1" parent="1">
          <mxGeometry x="540" y="250" width="80" height="80" as="geometry" />
        </mxCell>
        <mxCell id="Wnc38f61G4QZHyKJO4xu-12" value="Access Services" style="text;html=1;align=center;verticalAlign=middle;resizable=0;points=[];autosize=1;" vertex="1" parent="1">
          <mxGeometry x="180" y="200" width="100" height="20" as="geometry" />
        </mxCell>
        <mxCell id="Wnc38f61G4QZHyKJO4xu-13" value="Get URLs" style="text;html=1;align=center;verticalAlign=middle;resizable=0;points=[];autosize=1;" vertex="1" parent="1">
          <mxGeometry x="465" y="270" width="70" height="20" as="geometry" />
        </mxCell>
        <mxCell id="Wnc38f61G4QZHyKJO4xu-14" value="Request to Service" style="text;html=1;align=center;verticalAlign=middle;resizable=0;points=[];autosize=1;" vertex="1" parent="1">
          <mxGeometry x="370" y="140" width="120" height="20" as="geometry" />
        </mxCell>
        <mxCell id="Wnc38f61G4QZHyKJO4xu-16" value="Discover Service" style="text;html=1;align=center;verticalAlign=middle;resizable=0;points=[];autosize=1;" vertex="1" parent="1">
          <mxGeometry x="595" y="180" width="110" height="20" as="geometry" />
        </mxCell>
        <mxCell id="Wnc38f61G4QZHyKJO4xu-18" value="&lt;b&gt;Network&lt;/b&gt;" style="text;html=1;align=center;verticalAlign=middle;resizable=0;points=[];autosize=1;" vertex="1" parent="1">
          <mxGeometry x="70" y="390" width="60" height="20" as="geometry" />
        </mxCell>
        <mxCell id="Wnc38f61G4QZHyKJO4xu-19" value="&lt;b&gt;&lt;font style=&quot;font-size: 18px&quot;&gt;Context Diagram&lt;/font&gt;&lt;/b&gt;" style="text;html=1;align=center;verticalAlign=middle;resizable=0;points=[];autosize=1;" vertex="1" parent="1">
          <mxGeometry x="285" y="30" width="160" height="20" as="geometry" />
        </mxCell>
        <mxCell id="Wnc38f61G4QZHyKJO4xu-29" style="edgeStyle=orthogonalEdgeStyle;rounded=0;orthogonalLoop=1;jettySize=auto;html=1;entryX=0;entryY=0.25;entryDx=0;entryDy=0;" edge="1" parent="1" source="Wnc38f61G4QZHyKJO4xu-20" target="Wnc38f61G4QZHyKJO4xu-21">
          <mxGeometry relative="1" as="geometry" />
        </mxCell>
        <mxCell id="Wnc38f61G4QZHyKJO4xu-37" value="&lt;font style=&quot;font-size: 12px&quot;&gt;Serve App&lt;/font&gt;" style="edgeLabel;html=1;align=center;verticalAlign=middle;resizable=0;points=[];" vertex="1" connectable="0" parent="Wnc38f61G4QZHyKJO4xu-29">
          <mxGeometry x="0.5636" y="4" relative="1" as="geometry">
            <mxPoint as="offset" />
          </mxGeometry>
        </mxCell>
        <mxCell id="Wnc38f61G4QZHyKJO4xu-30" style="edgeStyle=orthogonalEdgeStyle;rounded=0;orthogonalLoop=1;jettySize=auto;html=1;entryX=0;entryY=0.4;entryDx=0;entryDy=0;entryPerimeter=0;" edge="1" parent="1" source="Wnc38f61G4QZHyKJO4xu-20" target="Wnc38f61G4QZHyKJO4xu-22">
          <mxGeometry relative="1" as="geometry" />
        </mxCell>
        <mxCell id="Wnc38f61G4QZHyKJO4xu-42" value="&lt;font style=&quot;font-size: 12px&quot;&gt;Serve App&lt;/font&gt;" style="edgeLabel;html=1;align=center;verticalAlign=middle;resizable=0;points=[];" vertex="1" connectable="0" parent="Wnc38f61G4QZHyKJO4xu-30">
          <mxGeometry x="0.4634" y="-2" relative="1" as="geometry">
            <mxPoint as="offset" />
          </mxGeometry>
        </mxCell>
        <mxCell id="Wnc38f61G4QZHyKJO4xu-31" style="edgeStyle=orthogonalEdgeStyle;rounded=0;orthogonalLoop=1;jettySize=auto;html=1;entryX=0;entryY=0.5;entryDx=0;entryDy=0;" edge="1" parent="1" source="Wnc38f61G4QZHyKJO4xu-20" target="Wnc38f61G4QZHyKJO4xu-23">
          <mxGeometry relative="1" as="geometry" />
        </mxCell>
        <mxCell id="Wnc38f61G4QZHyKJO4xu-43" value="&lt;font style=&quot;font-size: 12px&quot;&gt;Serve App&lt;/font&gt;" style="edgeLabel;html=1;align=center;verticalAlign=middle;resizable=0;points=[];" vertex="1" connectable="0" parent="Wnc38f61G4QZHyKJO4xu-31">
          <mxGeometry x="0.4568" y="-3" relative="1" as="geometry">
            <mxPoint as="offset" />
          </mxGeometry>
        </mxCell>
        <mxCell id="Wnc38f61G4QZHyKJO4xu-32" style="edgeStyle=orthogonalEdgeStyle;rounded=0;orthogonalLoop=1;jettySize=auto;html=1;entryX=0;entryY=0.5;entryDx=0;entryDy=0;" edge="1" parent="1" source="Wnc38f61G4QZHyKJO4xu-20" target="Wnc38f61G4QZHyKJO4xu-28">
          <mxGeometry relative="1" as="geometry" />
        </mxCell>
        <mxCell id="Wnc38f61G4QZHyKJO4xu-44" value="&lt;font style=&quot;font-size: 12px&quot;&gt;Get URL&lt;/font&gt;" style="edgeLabel;html=1;align=center;verticalAlign=middle;resizable=0;points=[];" vertex="1" connectable="0" parent="Wnc38f61G4QZHyKJO4xu-32">
          <mxGeometry x="0.6319" y="4" relative="1" as="geometry">
            <mxPoint as="offset" />
          </mxGeometry>
        </mxCell>
        <mxCell id="Wnc38f61G4QZHyKJO4xu-20" value="Edge Server" style="rounded=1;whiteSpace=wrap;html=1;fillColor=#60a917;strokeColor=#2D7600;fontColor=#ffffff;" vertex="1" parent="1">
          <mxGeometry x="40" y="670" width="120" height="60" as="geometry" />
        </mxCell>
        <mxCell id="Wnc38f61G4QZHyKJO4xu-21" value="User Admin&amp;nbsp;" style="rounded=1;whiteSpace=wrap;html=1;fillColor=#1ba1e2;strokeColor=#006EAF;fontColor=#ffffff;" vertex="1" parent="1">
          <mxGeometry x="535" y="510" width="120" height="60" as="geometry" />
        </mxCell>
        <mxCell id="Wnc38f61G4QZHyKJO4xu-22" value="Reporting" style="rounded=1;whiteSpace=wrap;html=1;fillColor=#1ba1e2;strokeColor=#006EAF;fontColor=#ffffff;" vertex="1" parent="1">
          <mxGeometry x="535" y="600" width="120" height="60" as="geometry" />
        </mxCell>
        <mxCell id="Wnc38f61G4QZHyKJO4xu-23" value="Controller" style="rounded=1;whiteSpace=wrap;html=1;fillColor=#1ba1e2;strokeColor=#006EAF;fontColor=#ffffff;" vertex="1" parent="1">
          <mxGeometry x="535" y="700" width="120" height="60" as="geometry" />
        </mxCell>
        <mxCell id="Wnc38f61G4QZHyKJO4xu-28" value="Configuration&lt;br&gt;&lt;br&gt;" style="rounded=1;whiteSpace=wrap;html=1;fillColor=#d5e8d4;strokeColor=#82b366;" vertex="1" parent="1">
          <mxGeometry x="535" y="840" width="125" height="100" as="geometry" />
        </mxCell>
        <mxCell id="Wnc38f61G4QZHyKJO4xu-33" value="Discover Service" style="rounded=1;whiteSpace=wrap;html=1;" vertex="1" parent="1">
          <mxGeometry x="547.5" y="900" width="100" height="30" as="geometry" />
        </mxCell>
        <mxCell id="Wnc38f61G4QZHyKJO4xu-36" value="&lt;b&gt;&lt;font style=&quot;font-size: 18px&quot;&gt;Component Diagram&lt;/font&gt;&lt;/b&gt;" style="text;html=1;align=center;verticalAlign=middle;resizable=0;points=[];autosize=1;" vertex="1" parent="1">
          <mxGeometry x="295" y="450" width="190" height="20" as="geometry" />
        </mxCell>
        <mxCell id="Wnc38f61G4QZHyKJO4xu-45" value="Edge Server" style="rounded=0;whiteSpace=wrap;html=1;fillColor=#60a917;strokeColor=#2D7600;fontColor=#ffffff;" vertex="1" parent="1">
          <mxGeometry x="250" y="-650" width="120" height="60" as="geometry" />
        </mxCell>
        <mxCell id="Wnc38f61G4QZHyKJO4xu-46" value="Service Discovery" style="rounded=0;whiteSpace=wrap;html=1;fillColor=#1ba1e2;strokeColor=#006EAF;fontColor=#ffffff;" vertex="1" parent="1">
          <mxGeometry x="520" y="-650" width="120" height="60" as="geometry" />
        </mxCell>
        <mxCell id="Wnc38f61G4QZHyKJO4xu-47" value="Proxy Service" style="rounded=0;whiteSpace=wrap;html=1;fillColor=#f0a30a;strokeColor=#BD7000;fontColor=#ffffff;" vertex="1" parent="1">
          <mxGeometry x="750" y="-650" width="120" height="60" as="geometry" />
        </mxCell>
        <mxCell id="Wnc38f61G4QZHyKJO4xu-49" value="Actor" style="shape=umlActor;verticalLabelPosition=bottom;verticalAlign=top;html=1;outlineConnect=0;" vertex="1" parent="1">
          <mxGeometry x="85" y="-660" width="30" height="60" as="geometry" />
        </mxCell>
        <mxCell id="Wnc38f61G4QZHyKJO4xu-51" value="" style="endArrow=none;dashed=1;html=1;" edge="1" parent="1">
          <mxGeometry width="50" height="50" relative="1" as="geometry">
            <mxPoint x="100" y="-400" as="sourcePoint" />
            <mxPoint x="100" y="-570" as="targetPoint" />
          </mxGeometry>
        </mxCell>
        <mxCell id="Wnc38f61G4QZHyKJO4xu-52" value="" style="endArrow=classic;html=1;" edge="1" parent="1">
          <mxGeometry width="50" height="50" relative="1" as="geometry">
            <mxPoint x="100" y="-550" as="sourcePoint" />
            <mxPoint x="320" y="-550" as="targetPoint" />
          </mxGeometry>
        </mxCell>
        <mxCell id="Wnc38f61G4QZHyKJO4xu-53" value="" style="endArrow=none;dashed=1;html=1;" edge="1" parent="1">
          <mxGeometry width="50" height="50" relative="1" as="geometry">
            <mxPoint x="320" y="-400" as="sourcePoint" />
            <mxPoint x="320" y="-580" as="targetPoint" />
          </mxGeometry>
        </mxCell>
        <mxCell id="Wnc38f61G4QZHyKJO4xu-54" value="" style="endArrow=classic;html=1;" edge="1" parent="1">
          <mxGeometry width="50" height="50" relative="1" as="geometry">
            <mxPoint x="320" y="-510" as="sourcePoint" />
            <mxPoint x="580" y="-510" as="targetPoint" />
          </mxGeometry>
        </mxCell>
        <mxCell id="Wnc38f61G4QZHyKJO4xu-55" value="" style="endArrow=none;dashed=1;html=1;" edge="1" parent="1">
          <mxGeometry width="50" height="50" relative="1" as="geometry">
            <mxPoint x="579.5" y="-410" as="sourcePoint" />
            <mxPoint x="579.5" y="-590" as="targetPoint" />
          </mxGeometry>
        </mxCell>
        <mxCell id="Wnc38f61G4QZHyKJO4xu-56" value="" style="endArrow=classic;html=1;" edge="1" parent="1">
          <mxGeometry width="50" height="50" relative="1" as="geometry">
            <mxPoint x="320" y="-460" as="sourcePoint" />
            <mxPoint x="820" y="-460" as="targetPoint" />
          </mxGeometry>
        </mxCell>
        <mxCell id="Wnc38f61G4QZHyKJO4xu-57" value="" style="endArrow=none;dashed=1;html=1;" edge="1" parent="1">
          <mxGeometry width="50" height="50" relative="1" as="geometry">
            <mxPoint x="820" y="-410" as="sourcePoint" />
            <mxPoint x="820" y="-590" as="targetPoint" />
          </mxGeometry>
        </mxCell>
        <mxCell id="Wnc38f61G4QZHyKJO4xu-58" value="&lt;b&gt;Access Proxy Service&lt;/b&gt;" style="text;html=1;align=center;verticalAlign=middle;resizable=0;points=[];autosize=1;" vertex="1" parent="1">
          <mxGeometry x="120" y="-570" width="140" height="20" as="geometry" />
        </mxCell>
        <mxCell id="Wnc38f61G4QZHyKJO4xu-59" value="&lt;b&gt;Discover the Coordinates for Proxy Service&lt;/b&gt;" style="text;html=1;align=center;verticalAlign=middle;resizable=0;points=[];autosize=1;" vertex="1" parent="1">
          <mxGeometry x="320" y="-530" width="260" height="20" as="geometry" />
        </mxCell>
        <mxCell id="Wnc38f61G4QZHyKJO4xu-60" value="&lt;b&gt;Forward Request to Proxy Service&lt;/b&gt;" style="text;html=1;align=center;verticalAlign=middle;resizable=0;points=[];autosize=1;" vertex="1" parent="1">
          <mxGeometry x="465" y="-480" width="210" height="20" as="geometry" />
        </mxCell>
        <mxCell id="Wnc38f61G4QZHyKJO4xu-61" value="" style="endArrow=classic;html=1;" edge="1" parent="1">
          <mxGeometry width="50" height="50" relative="1" as="geometry">
            <mxPoint x="820" y="-420" as="sourcePoint" />
            <mxPoint x="100" y="-420" as="targetPoint" />
          </mxGeometry>
        </mxCell>
        <mxCell id="Wnc38f61G4QZHyKJO4xu-62" value="&lt;b&gt;Serve the Requested Page&lt;/b&gt;" style="text;html=1;align=center;verticalAlign=middle;resizable=0;points=[];autosize=1;" vertex="1" parent="1">
          <mxGeometry x="360" y="-440" width="170" height="20" as="geometry" />
        </mxCell>
        <mxCell id="Wnc38f61G4QZHyKJO4xu-63" value="&lt;font style=&quot;font-size: 18px&quot;&gt;&lt;b&gt;Sequence Diagram&lt;/b&gt;&lt;/font&gt;" style="text;html=1;align=center;verticalAlign=middle;resizable=0;points=[];autosize=1;" vertex="1" parent="1">
          <mxGeometry x="370" y="-750" width="180" height="20" as="geometry" />
        </mxCell>
        <mxCell id="Wnc38f61G4QZHyKJO4xu-64" value="" style="endArrow=classic;html=1;" edge="1" parent="1">
          <mxGeometry width="50" height="50" relative="1" as="geometry">
            <mxPoint x="510" y="890" as="sourcePoint" />
            <mxPoint x="360" y="890" as="targetPoint" />
          </mxGeometry>
        </mxCell>
      </root>
    </mxGraphModel>
  </diagram>
</mxfile>
